<?xml version="1.0" encoding="UTF-8" standalone="no"?>
<svg
   xmlns:dc="http://purl.org/dc/elements/1.1/"
   xmlns:cc="http://creativecommons.org/ns#"
   xmlns:rdf="http://www.w3.org/1999/02/22-rdf-syntax-ns#"
   xmlns:svg="http://www.w3.org/2000/svg"
   xmlns="http://www.w3.org/2000/svg"
   xmlns:sodipodi="http://sodipodi.sourceforge.net/DTD/sodipodi-0.dtd"
   xmlns:inkscape="http://www.inkscape.org/namespaces/inkscape"
   viewBox="0 0 152.7 100.69"
   version="1.1"
   id="svg3783"
   sodipodi:docname="logo.svg"
   inkscape:version="0.92.4 5da689c313, 2019-01-14">
  <metadata
     id="metadata3789">
    <rdf:RDF>
      <cc:Work
         rdf:about="">
        <dc:format>image/svg+xml</dc:format>
        <dc:type
           rdf:resource="http://purl.org/dc/dcmitype/StillImage" />
        <dc:title></dc:title>
      </cc:Work>
    </rdf:RDF>
  </metadata>
  <defs
     id="defs3787" />
  <sodipodi:namedview
     pagecolor="#ffffff"
     bordercolor="#666666"
     borderopacity="1"
     objecttolerance="10"
     gridtolerance="10"
     guidetolerance="10"
     inkscape:pageopacity="0"
     inkscape:pageshadow="2"
     inkscape:window-width="947"
     inkscape:window-height="1040"
     id="namedview3785"
     showgrid="false"
     inkscape:zoom="3.5610028"
     inkscape:cx="212.58906"
     inkscape:cy="16.268643"
     inkscape:window-x="6"
     inkscape:window-y="6"
     inkscape:window-maximized="0"
     inkscape:current-layer="layer1" />
  <path
     d="M 1.96,0 C 0.88,0 0,0.62178054 0,1.3752323 V 65.967258 c 0,0.731506 0.88,1.360602 1.94,1.360602 h 26.1 V 66.120874 H 1.96 c -0.15,0 -0.25,-0.07315 -0.25,-0.168246 V 1.3679172 c 0,-0.1024109 0.1,-0.1609314 0.24,-0.1609314 h 148.8 c 0.15,0 0.24,0.05852 0.24,0.1682465 V 65.967258 c 0,0.0951 -0.1,0.160931 -0.24,0.160931 h -27.4 v 1.199671 h 27.4 c 1.07,0 1.95,-0.629096 1.95,-1.375232 V 1.3679172 C 152.7,0.62178054 151.82,0 150.76,0 Z"
     style="color:#000000;text-indent:0;text-decoration:none;text-decoration-line:none;text-decoration-style:solid;text-decoration-color:#000000;text-transform:none;white-space:normal;isolation:auto;mix-blend-mode:normal;solid-color:#000000;stroke-width:0.85528153"
     id="path3779"
     inkscape:connector-curvature="0" />
  <g
     inkscape:groupmode="layer"
     id="layer1"
     inkscape:label="Layer 1" />
  <text
     xml:space="preserve"
     style="font-style:normal;font-weight:normal;font-size:40px;line-height:1.25;font-family:sans-serif;letter-spacing:0px;word-spacing:0px;fill:#000000;fill-opacity:1;stroke:none"
     x="6.4815917"
     y="91.408646"
     id="text3969"><tspan
       sodipodi:role="line"
       id="tspan3967"
       x="6.4815917"
       y="91.408646"
       style="font-style:normal;font-variant:normal;font-weight:normal;font-stretch:normal;font-size:24px;font-family:'Estrangelo Antioch';-inkscape-font-specification:'Estrangelo Antioch, Normal';font-variant-ligatures:normal;font-variant-caps:normal;font-variant-numeric:normal;font-feature-settings:normal;text-align:start;writing-mode:lr;text-anchor:start">adam gefen</tspan></text>
  <path
     inkscape:connector-curvature="0"
     id="XMLID_684_"
     d="m 92.289055,23.218704 c -0.23221,0.261148 -0.33128,0.752338 -0.2355,1.168005 0.0899,0.389249 -0.1834,0.7713 -0.61007,0.853068 -0.0548,0.01055 -0.10933,0.01563 -0.16313,0.01563 -0.36549,0 -0.69348,-0.232809 -0.77176,-0.572356 -0.19446,-0.843584 0.0234,-1.774809 0.55467,-2.372378 0.3868,-0.434879 0.91872,-0.674413 1.49773,-0.674413 0.43588,0 0.78939,0.322621 0.78939,0.720394 0,0.39778 -0.35351,0.720395 -0.78939,0.720395 -0.0437,0 -0.1459,0 -0.27194,0.141678 z M 69.292505,12.801552 c 0.42995,-0.06616 0.71978,-0.437761 0.64743,-0.830014 -0.0724,-0.39226 -0.4785,-0.656885 -0.90951,-0.590845 -0.609146,0.09353 -1.122776,0.432355 -1.446161,0.953684 -0.45021,0.725556 -0.498758,1.758241 -0.123798,2.630759 0.122091,0.28396 0.41982,0.457691 0.735184,0.457691 0.09591,0 0.193266,-0.0161 0.287859,-0.04993 0.405876,-0.145277 0.605856,-0.56323 0.446796,-0.933632 -0.19866,-0.462251 -0.18695,-1.048773 0.0279,-1.394923 0.11735,-0.189703 0.24694,-0.229447 0.3343,-0.242774 z m 12.70242,-3.6403962 c 0.43574,-0.012042 0.77833,-0.3439917 0.76518,-0.7417648 -0.013,-0.39778 -0.37326,-0.7128311 -0.81281,-0.6983067 -0.59862,0.016439 -1.14067,0.2795148 -1.52628,0.7409259 -0.5335,0.6381527 -0.72795,1.6166908 -0.49573,2.4925708 0.0875,0.329697 0.41061,0.550979 0.76662,0.550979 0.0616,0 0.12394,-0.0068 0.18643,-0.02043 0.42377,-0.09353 0.684,-0.482903 0.58138,-0.869635 -0.11893,-0.448808 -0.028,-0.9871846 0.21656,-1.2796678 0.14209,-0.1697668 0.27036,-0.1733725 0.31865,-0.1746917 z m -6.03552,11.9639612 c 0.43587,0 0.78938,-0.322615 0.78938,-0.720395 0,-0.39778 -0.35351,-0.720394 -0.78938,-0.720394 -0.57968,0 -1.10423,0.235928 -1.51695,0.682456 -0.70321,0.760376 -1.01896,2.108714 -0.78609,3.355362 0.0656,0.351311 0.39956,0.599362 0.77728,0.599362 0.0441,0 0.0888,-0.0034 0.13367,-0.01035 0.42982,-0.06697 0.71874,-0.43908 0.64546,-0.831333 -0.15183,-0.812006 0.0356,-1.750922 0.43613,-2.18388 0.15801,-0.170855 0.26879,-0.170855 0.3105,-0.170855 z M 74.898195,27.473 c -0.41903,-0.110458 -0.85648,0.110581 -0.97699,0.492869 -1.21421,3.847993 -2.14029,11.893728 -0.27181,16.94238 0.1113,0.30052 0.4185,0.490108 0.74781,0.490108 0.0838,0 0.16893,-0.01238 0.25273,-0.03809 0.41311,-0.127391 0.6348,-0.536097 0.49534,-0.912986 -1.76059,-4.75761 -0.86582,-12.409408 0.29326,-16.082703 0.12038,-0.382288 -0.12143,-0.781509 -0.54034,-0.891609 z M 62.589026,39.115911 c 0.131432,0.07648 0.278259,0.11286 0.423372,0.11286 0.260761,0 0.515998,-0.117785 0.666506,-0.333425 0.234187,-0.335461 0.126043,-0.780785 -0.241685,-0.994626 -2.505909,-1.457119 -4.35268,-5.522071 -3.349101,-7.371924 0.193531,-0.356594 0.03354,-0.788714 -0.357197,-0.965212 -0.391145,-0.176971 -0.864249,-0.03051 -1.057651,0.325983 -0.682684,1.258528 -0.560593,3.095175 0.335359,5.039162 0.829912,1.800868 2.168448,3.366172 3.580397,4.187182 z M 59.478052,25.652562 c 0.435876,0 0.789385,-0.322614 0.789385,-0.720394 0,-0.39778 -0.353509,-0.720394 -0.789385,-0.720394 -0.578887,0 -1.110798,0.239527 -1.497602,0.674527 -0.531258,0.59757 -0.748866,1.528679 -0.554409,2.372264 0.07828,0.339303 0.406268,0.572234 0.771622,0.572234 0.05381,0 0.108546,-0.0047 0.163271,-0.01563 0.426664,-0.08188 0.699664,-0.463934 0.609937,-0.853183 -0.09578,-0.415552 0.0034,-0.906621 0.2355,-1.167762 0.125908,-0.141679 0.228133,-0.141679 0.271681,-0.141679 z m 38.720093,20.063729 c -1.49207,-0.58772 -3.57987,-1.098604 -6.20524,-1.518471 -0.57165,-0.09137 -1.11804,0.257657 -1.21842,0.780305 -0.10038,0.522526 0.28234,1.020319 0.85504,1.11193 5.63609,0.901452 7.19052,2.009783 7.30656,2.345244 -0.10801,0.309531 -1.50825,1.3397 -6.55454,2.219781 -4.41597,0.770225 -10.22572,1.194415 -16.35886,1.194415 -6.13328,0 -11.94303,-0.42419 -16.358994,-1.194415 -5.046425,-0.880081 -6.44653,-1.91025 -6.554545,-2.219781 0.115906,-0.335461 1.670343,-1.443792 7.306302,-2.345244 0.572703,-0.09161 0.955419,-0.589404 0.855037,-1.11193 -0.100382,-0.522648 -0.647293,-0.87168 -1.218418,-0.780305 -2.625366,0.419867 -4.713033,0.930866 -6.205111,1.518471 -0.703733,0.277228 -2.845213,1.120575 -2.845213,2.719008 0,1.749122 2.573138,3.069244 7.866242,4.035294 4.592916,0.83818 10.68528,1.299956 17.1547,1.299956 6.46929,0 12.56151,-0.461776 17.15456,-1.299956 5.29311,-0.966165 7.866255,-2.286172 7.866255,-4.035294 -1.4e-4,-1.598433 -2.141615,-2.442017 -2.845355,-2.719008 z M 76.602485,9.1244153 c 0.5431,0.1895813 1.15132,-0.058855 1.3588,-0.5543415 0.98529,-2.3532944 3.10413,-3.6612935 5.15128,-3.1804263 0.59112,0.138675 1.12724,0.4111069 1.59259,0.7867924 0.13788,0.1112972 0.71057,0.6615594 0.95502,1.0565792 0.70901,1.0643792 1.06949,2.463631 0.94806,3.9355179 -0.0149,0.180699 -0.059,0.633464 -0.12289,0.847542 -0.19721,0.9484 -0.5927,1.835449 -1.14382,2.565091 -0.158,0.209153 -0.21879,0.467175 -0.16892,0.717154 0.13301,0.666241 0.17498,1.360942 0.12498,2.064891 -0.0375,0.529372 0.40232,0.986338 0.98239,1.020555 0.0231,0.0014 0.0462,0.002 0.0689,0.002 0.55034,0 1.01318,-0.39021 1.04937,-0.898448 0.0516,-0.726524 0.0225,-1.447276 -0.0863,-2.147985 0.55954,-0.828694 0.97134,-1.782135 1.20276,-2.787929 l 2.18042,-0.84646 c 0.53493,-0.207566 0.78412,-0.771636 0.55651,-1.2597 -0.22734,-0.4881874 -0.8453,-0.7155917 -1.38037,-0.5078802 l -1.13909,0.4420842 c -0.03507,-1.2504907 -0.34809,-2.465316 -0.92539,-3.5429071 -0.13288,-0.2478142 -0.27721,-0.4843444 -0.43258,-0.7089886 l 1.38497,-1.203061 c 0.42101,-0.3657208 0.43746,-0.9737355 0.0367,-1.3580599 -0.40087,-0.3844529 -1.06698,-0.3992208 -1.48812,-0.033486 l -1.3042,1.1329421 c -0.69782,-0.5453441 -1.4976,-0.9327939 -2.36685,-1.1367846 -3.06927,-0.7209964 -6.28365,1.1112063 -7.64179,4.3552706 -0.20735,0.4955066 0.0646,1.0508154 0.60756,1.2400383 z m 10.96459,12.1283287 c -1.04305,1.970283 -0.85873,4.294041 0.44877,6.026589 -0.15893,2.212455 -0.77097,3.711957 -1.86678,4.577636 -1.47799,1.167876 -3.86102,1.133057 -6.21603,0.921259 -0.5773,-0.05006 -1.09369,0.333905 -1.15065,0.861836 -0.0569,0.527932 0.36575,0.99811 0.94437,1.050099 2.82245,0.2537 5.72108,0.262102 7.80019,-1.380763 1.61048,-1.272334 2.46486,-3.325942 2.61221,-6.27824 0.0114,-0.231612 -0.0691,-0.459131 -0.22708,-0.640791 -1.02962,-1.184213 -1.20605,-2.872938 -0.44955,-4.302084 0.70229,-1.326609 2.04622,-2.087465 3.68696,-2.087465 2.13358,0 3.16807,1.208223 3.59474,1.928502 0.78675,1.328044 0.73716,2.964421 -0.12683,4.169281 -0.13354,0.186226 -0.19195,0.408827 -0.16564,0.629866 0.45271,3.796005 0.11197,6.613592 -1.07291,8.682325 -0.0267,0.03863 -0.0504,0.07925 -0.0708,0.121025 -0.31246,0.523013 -0.68071,0.997508 -1.10514,1.426508 -2.16174,2.184718 -5.91606,3.298204 -11.73555,3.460658 -0.49969,0.01394 -1.79139,0.0205 -1.91558,0.01969 -0.57718,-0.0041 -1.05541,0.423717 -1.05936,0.954286 -0.003,0.530455 0.46429,0.963169 1.04554,0.966775 0.55363,0.0027 1.09172,-6.02e-4 1.61614,-0.01191 -0.72953,2.225667 -1.93847,4.550623 -3.07164,5.108448 -0.51152,0.252015 -0.70255,0.834574 -0.42653,1.301512 0.19025,0.321897 0.55284,0.504639 0.92727,0.504639 0.16866,0 0.33996,-0.03721 0.49889,-0.115383 2.41026,-1.186731 3.82748,-5.325644 4.28874,-6.896104 5.41441,-0.368007 9.08164,-1.667834 11.39441,-4.005278 0.46179,-0.46658 0.86885,-0.971577 1.22197,-1.517632 l 2.25672,-0.621585 c 0.55639,-0.153321 0.871495,-0.689296 0.70362,-1.197175 -0.16802,-0.507758 -0.75559,-0.795317 -1.31184,-0.642111 l -0.55612,0.1532 c 0.32615,-0.99102 0.53165,-2.085064 0.61954,-3.294362 0.0562,-0.03071 0.10998,-0.06691 0.1605,-0.108179 l 1.992555,-1.628457 c 0.43311,-0.353834 0.46968,-0.961125 0.0818,-1.356267 -0.38773,-0.395135 -1.053185,-0.428757 -1.486165,-0.07468 l -0.7286,0.595526 c -0.0272,-0.549065 -0.0731,-1.118296 -0.13749,-1.7077 1.01436,-1.637094 1.09317,-3.712071 0.20972,-5.472957 l 1.374065,-1.122978 c 0.43298,-0.353956 0.46968,-0.961247 0.082,-1.356382 -0.387725,-0.395257 -1.053045,-0.428635 -1.486285,-0.07481 l -1.15671,0.945404 c -1.13462,-1.084918 -2.69089,-1.684889 -4.45504,-1.684889 -2.44381,1.22e-4 -4.53069,1.18625 -5.58242,3.1731 z M 62.487461,9.763285 l 1.606664,0.927267 c -0.843199,1.36755 -1.143296,2.987482 -0.845696,4.604167 0.17287,0.938794 0.547307,1.839772 1.090667,2.631124 -0.133275,0.592043 -0.192477,1.202818 -0.176163,1.821277 0.01381,0.522526 0.482186,0.937476 1.051725,0.937476 0.0086,0 0.01721,-1.22e-4 0.02578,-2.37e-4 0.581126,-0.01272 1.040813,-0.453009 1.026996,-0.983342 -0.01551,-0.588924 0.05776,-1.166442 0.218132,-1.716224 0.08118,-0.278554 0.02095,-0.575712 -0.16406,-0.80936 -0.504814,-0.637909 -0.849642,-1.398291 -0.997129,-2.199006 -0.234712,-1.274384 0.03313,-2.542998 0.754396,-3.571962 0.0921,-0.131349 0.512311,-0.669129 0.920028,-0.96785 0.583486,-0.452048 1.274599,-0.75041 2.025834,-0.8657933 6.8e-4,0 10e-4,-1.217e-4 0.002,-3.653e-4 2.10818,-0.3212952 4.26045,0.9235526 5.12193,2.9637106 0.20906,0.494911 0.81781,0.741643 1.36064,0.550857 0.54232,-0.190779 0.81268,-0.74669 0.60362,-1.241716 -1.08089,-2.5596861 -3.65982,-4.2273986 -6.38281,-4.2439728 l -0.30707,-1.667354 c -0.0963,-0.5230062 -0.63835,-0.8754 -1.212498,-0.7879899 -0.573226,0.08789 -0.959895,0.583282 -0.863452,1.106525 l 0.30654,1.6641136 C 66.815207,8.1802156 66.050292,8.6051298 65.393917,9.1678802 L 63.612402,8.1397544 C 63.121406,7.8563971 62.470949,7.9899104 62.160327,8.4382381 61.849699,8.8865659 61.996261,9.4798127 62.487529,9.763285 Z m -10.25151,23.096231 1.730334,1.414013 c 0.05266,0.22645 0.112886,0.455296 0.180905,0.68594 0.311411,1.05658 0.758601,2.067894 1.301832,2.972708 -0.486397,-0.02895 -0.941214,0.253822 -1.078829,0.697103 -0.158407,0.510403 0.166556,1.041331 0.725836,1.186013 l 2.434475,0.629507 c 0.113009,0.09569 0.227473,0.187058 0.342985,0.273629 1.862691,1.396485 4.195328,2.331315 6.745444,2.70328 0.05633,0.0082 0.112226,0.01225 0.167353,0.01225 0.50797,0 0.955289,-0.336665 1.038044,-0.809009 0.0917,-0.523845 -0.29905,-1.016354 -0.873195,-1.100044 -2.181735,-0.318291 -4.167176,-1.110367 -5.741607,-2.290732 -0.129588,-0.09714 -0.403772,-0.334866 -0.413772,-0.343633 -1.116322,-1.018519 -2.095294,-2.663779 -2.615897,-4.429827 -0.0838,-0.284196 -0.153665,-0.56455 -0.209846,-0.839262 -0.0027,-0.01597 -0.0061,-0.03179 -0.0096,-0.04756 -0.327202,-1.642507 -0.160904,-3.079933 0.479818,-3.951369 0.244181,-0.332106 0.237473,-0.767465 -0.01701,-1.093083 -0.790311,-1.011072 -0.877801,-2.35389 -0.228262,-3.504604 0.693603,-1.229112 2.049643,-1.934015 3.719986,-1.934015 1.727442,0 3.147549,0.776226 3.798795,2.076296 0.619005,1.235959 0.41482,2.624637 -0.532843,3.624431 -0.161162,0.169889 -0.251808,0.386131 -0.256414,0.610775 -0.03735,1.84733 0.445347,3.356803 1.434448,4.48662 0.362986,0.414469 1.025152,0.481943 1.479308,0.150804 0.454027,-0.331145 0.528101,-0.935554 0.165244,-1.350023 -0.631245,-0.720874 -0.951344,-1.682365 -0.974624,-2.931889 1.250781,-1.53108 1.492595,-3.606057 0.599276,-5.389396 -1.003313,-2.002937 -3.139004,-3.198678 -5.71319,-3.198678 -0.131697,0 -0.262475,0.0034 -0.392063,0.0096 l -1.6539,-1.351823 c -0.433107,-0.353828 -1.098429,-0.320571 -1.486281,0.07481 -0.387723,0.395135 -0.351013,1.002426 0.08196,1.356382 l 0.587568,0.480144 c -1.168557,0.5056 -2.121615,1.330932 -2.728653,2.406359 -0.902531,1.599399 -0.8824,3.44913 0.01959,4.965084 -0.359959,0.681015 -0.571778,1.486419 -0.631769,2.376824 l -0.07144,-0.05845 c -0.433114,-0.353834 -1.098566,-0.320334 -1.486289,0.0748 -0.387457,0.394898 -0.350747,1.002067 0.08223,1.356023 z M 77.987855,18.393377 c 0.41904,0.164733 0.81124,0.392496 1.16711,0.67285 1.21171,0.954644 2.00321,2.519942 2.00321,4.28551 0,0.913703 -0.21695,1.814674 -0.62757,2.605309 -0.14419,0.277716 -0.13406,0.601771 0.0272,0.871558 0.52337,0.874804 0.58415,1.590876 0.60257,2.50926 0,0.01258 2.6e-4,0.0253 6.8e-4,0.03782 10e-4,0.08861 0.003,0.179259 0.004,0.272067 0.003,0.220924 0.007,0.449167 0.0148,0.687619 0.0183,0.530211 0.50941,0.947196 1.08501,0.929912 0.58099,-0.01671 1.03725,-0.459977 1.01897,-0.990188 -0.007,-0.192105 -0.01,-0.377127 -0.0126,-0.556866 l 1.62732,-1.558336 c 0.40114,-0.384088 0.38509,-0.992103 -0.0357,-1.35806 -0.42087,-0.366086 -1.08712,-0.351555 -1.48812,0.03254 l -0.38588,0.369564 c -0.0855,-0.279272 -0.19827,-0.565991 -0.34694,-0.863995 0.40719,-0.93303 0.62059,-1.956467 0.62059,-2.988314 0,-2.504816 -1.23276,-4.714389 -3.09703,-6.000057 l 0.98831,-0.772139 c 0.44153,-0.344952 0.49311,-0.951404 0.11512,-1.354224 -0.37799,-0.402942 -1.04251,-0.450127 -1.48391,-0.10506 l -1.64443,1.284585 c -0.55757,-0.153321 -1.14303,-0.235089 -1.74599,-0.235089 -3.14387,0 -5.80107,2.22062 -6.61283,5.240635 l -0.49277,-0.402819 c -0.43311,-0.353835 -1.098692,-0.320457 -1.486286,0.0748 -0.387716,0.395135 -0.351012,1.002547 0.08197,1.356382 l 1.655346,1.352783 c 0.0518,0.882963 0.25918,1.751402 0.60941,2.55284 -1.09344,2.233825 -1.913873,6.824666 -1.946365,11.057593 -0.03252,4.229076 0.672025,9.6731 4.212825,11.593674 0.16853,0.0915 0.35377,0.134954 0.53665,0.134954 0.35904,0 0.70913,-0.16773 0.90582,-0.469935 0.29708,-0.456013 0.13275,-1.04541 -0.36706,-1.316401 -2.06293,-1.118898 -3.2232,-4.737802 -3.18321,-9.928729 0.0355,-4.611006 1.02634,-9.085503 1.92413,-10.586926 0.1613,-0.269672 0.17143,-0.593491 0.0272,-0.871321 -0.40969,-0.789431 -0.62664,-1.688602 -0.62742,-2.600865 0,-0.0027 0,-0.0061 0,-0.0087 0.002,-2.898868 2.13779,-5.256722 4.76249,-5.256722 0.63652,-0.04925 1.57063,0.294641 1.59299,0.302441 z"
     style="stroke-width:0.12568377" />
  <g
     inkscape:groupmode="layer"
     id="layer2"
     inkscape:label="Layer 2">
    <path
       style="fill:#000000;stroke:#000000;stroke-width:1.13094771px;stroke-linecap:butt;stroke-linejoin:miter;stroke-opacity:1;fill-opacity:1"
       d="m 52.187609,49.574867 c 3.023143,6.54282 2.925804,15.686041 9.083149,19.617025 l 28.988848,0.231764 C 94.36653,69.639937 96.705824,55.232848 100.52464,48.534584 100.17732,51.291637 85.559992,52.863807 78.025962,53.209372 64.818148,52.32265 58.592608,52.564205 52.187609,49.574867 Z"
       id="path4664"
       inkscape:connector-curvature="0"
       sodipodi:nodetypes="cccccc" />
  </g>
</svg>
